{"title":"The Chronicles of Narnia The Voyage of the Dawn Treader R5 LiNE ","uid":6117828,"size":1481358859,"categoryP":"video","categoryS":"movies","magnet":"?xt=urn:btih:f26e3247c3ce3da182485153f0c13428a6fa936b&amp;dn=The+Chronicles+of+Narnia+The+Voyage+of+the+Dawn+Treader+R5+LiNE+&amp;tr=udp%3A%2F%2Ftracker.openbittorrent.com%3A80&amp;tr=udp%3A%2F%2Fopen.demonii.com%3A1337&amp;tr=udp%3A%2F%2Ftracker.coppersurfer.tk%3A6969&amp;tr=udp%3A%2F%2Fexodus.desync.com%3A6969","seeders":0,"leechers":0,"uploader":"SAFCukO09","files":102,"time":1295632580,"description":"*********** **** **** *** ******** *********** **** *** **********\n\n*+* +*+*+* *+*+*+ *+* *+* *+* *+* *+* *+*+* *+* *+*\n\n+*+ +*+ +*+*+ +*+ +*+ +*+ +*+ +*+ *+*+*+ +*+ +*+\n\n+$+ +$+ +*+ +$+ +$++*++$++* *$* +$+ +$+ +*+ +$+ +$++*++$\n\n+$+ +$+ +$+ +$+ +$+ +$+ +$+$ +$+ +$+ +$+$+$ +$+\n\n$+$ $+$ $+$ $+$ $+$ $+$ $+$ $+$ $+$ $+$+$ $+$\n\n$$$$$$$$$$$ $$$ $$$ $$$ $$$ $$$$$$$$ $$$$$$$$$$$ $$$ $$$$ $$$$$$$$$$\n\n\n\n\n\n\n\n\n\nAnother Fine Release Brought to you from - IMAGiNE\n\n\n\n\n\n********************************************************************************************************************\n\nThe Chronicles of Narnia The Voyage of the Dawn Treader R5 LiNE XViD - IMAGiNE\n\n********************************************************************************************************************\n\n\n\nRipper ...........: IMAGiNE IMDB Rating.......:6.7/10\n\nVideo Codec.......: XVID Release Date......:21/01/11\n\nAudio Codec.......:MP3 Theatre Date......:10/12/10\n\nAudio Bitrate.....:128 Runtime.......:1h 48mn\n\nSubtitles.........:NIL Language..........:ENGLISH\n\nResolution...... 720 x 384 IMDb URL.......... http://www.imdb.com/title/tt0980970/\n\n\n\n\n\nDETAILS:\n\n\n\nVideo\n\nID : 0\n\nFormat : MPEG-4 Visual\n\nFormat profile : Advanced Simple@L5\n\nFormat settings, BVOP : Yes\n\nFormat settings, QPel : No\n\nFormat settings, GMC : No warppoints\n\nFormat settings, Matrix : Default (H.263)\n\nMuxing mode : Packed bitstream\n\nCodec ID : XVID\n\nCodec ID/Hint : XviD\n\nDuration : 1h 48mn\n\nBit rate : 1 665 Kbps\n\nWidth : 720 pixels\n\nHeight : 384 pixels\n\nDisplay aspect ratio : 1.875\n\nFrame rate : 25.000 fps\n\nColor space : YUV\n\nChroma subsampling : 4:2:0\n\nBit depth : 8 bits\n\nScan type : Progressive\n\nBits/(Pixel*Frame) : 0.241\n\nStream size : 1.26 GiB (92%)\n\nWriting library : XviD 1.1.2 (UTC 2006-11-01)\n\n\n\nAudio\n\nID : 1\n\nFormat : MPEG Audio\n\nFormat version : Version 1\n\nFormat profile : Layer 3\n\nCodec ID : 55\n\nCodec ID/Hint : MP3\n\nDuration : 1h 48mn\n\nBit rate mode : Constant\n\nBit rate : 128 Kbps\n\nChannel(s) : 2 channels\n\nSampling rate : 44.1 KHz\n\nStream size : 98.9 MiB (7%)\n\nAlignment : Split accross interleaves\n\nInterleave, duration : 40 ms (1.00 video frame)\n\nInterleave, preload duration : 500 ms\n\n\n\n\n\nSOURCES:\n\n\n\nVIDEO: The.Chronicles.of.Narnia.2010. Russian r5 dvd.. Thanks\n\nAUDIO: The.Chronicles.of.Narnia.2010. Russian r5 ,2 of our own\n\n\n\nNOTES:\n\n\n\nIMAGiNE bringing you another release....The Chronicles of Narnia - The Voyage of the Dawn Treader\n\n\n\nRight first the video source.....not a bad R5,but seen better.The video was a touch dull looking and lacked\n\nsome life and colour.also thought the colours were slightly off aswell.\n\nWorkdone.....well first thing was to filter the video so we made a script to crop,resize,sharpness,brightness,contrast\n\nand chroma.Had to crop due to the thin black border and a weird thin blurry line across the top aswell .\n\nAlso then used a white balance and rgb filter.\n\nAudio now for this we used the russian for the intro and end credits then we used our own line,but there was some issue\n\n@ 12min mark so we needed to swap the audio for 30secs and then swap it back.\n\n\n\nOverall a really nice R5 v9.5 a8.5 .......\n\n\n\nEnjoy :)\n\n\n\nSCREENS: ","torrent":{"xt":"urn:btih:f26e3247c3ce3da182485153f0c13428a6fa936b","amp;dn":"The+Chronicles+of+Narnia+The+Voyage+of+the+Dawn+Treader+R5+LiNE+","amp;tr":["udp%3A%2F%2Ftracker.openbittorrent.com%3A80","udp%3A%2F%2Fopen.demonii.com%3A1337","udp%3A%2F%2Ftracker.coppersurfer.tk%3A6969","udp%3A%2F%2Fexodus.desync.com%3A6969"],"infoHash":"f26e3247c3ce3da182485153f0c13428a6fa936b","infoHashBuffer":{"type":"Buffer","data":[242,110,50,71,195,206,61,161,130,72,81,83,240,193,52,40,166,250,147,107]},"announce":[],"urlList":[]}}